# xmcd CD database file
#
# Track frame offsets:
#	150
#	17598
#	32561
#	55065
#	67581
#	82498
#	104477
#	125140
#	143311
#	162950
#	167270
#
# Disc length: 2489 seconds
#
# Revision: 0
# Processed by: cddbd v1.5.2PL0 Copyright (c) Steve Scherf et al.
# Submitted via: CDex 1.51
#
DISCID=8409b70b
DTITLE=The Boondogglers - Hats Off
DYEAR=1900
DGENRE=Country
TTITLE0=The Boondogglers - Hats Off
TTITLE1=The Boondogglers - American Dream
TTITLE2=The Boondogglers - Rogan's Song
TTITLE3=The Boondogglers - Fire On The Mountian
TTITLE4=The Boondogglers - Low Class Loser
TTITLE5=The Boondogglers - Devil Dances Alone
TTITLE6=The Boondogglers - Door To Door
TTITLE7=The Boondogglers - Sunday Morning
TTITLE8=The Boondogglers - Dashboard
TTITLE9=The Boondogglers - Welk
TTITLE10=The Boondogglers - Convoy
EXTD=
EXTT0=
EXTT1=
EXTT2=
EXTT3=
EXTT4=
EXTT5=
EXTT6=
EXTT7=
EXTT8=
EXTT9=
EXTT10=
PLAYORDER=
